<?xml version="1.0" encoding="UTF-8"?>
<svg width="54px" height="54px" viewBox="0 0 54 54" version="1.1" xmlns="http://www.w3.org/2000/svg" xmlns:xlink="http://www.w3.org/1999/xlink">
    <!-- Generator: Sketch 46.2 (44496) - http://www.bohemiancoding.com/sketch -->
    <title>Group 5 Copy</title>
    <desc>Created with Sketch.</desc>
    <defs></defs>
    <g id="Page-1" stroke="none" stroke-width="1" fill="none" fill-rule="evenodd">
        <g id="Desktop-HD" transform="translate(-570.000000, -420.000000)">
            <g id="Group-5-Copy" transform="translate(570.000000, 420.000000)">
                <circle id="Oval" stroke="#FFFFFF" stroke-width="3" cx="27" cy="27" r="9.5"></circle>
                <rect id="Rectangle-2" fill="#FFFFFF" x="25" y="0" width="3" height="6" rx="1.5"></rect>
                <rect id="Rectangle-2-Copy" fill="#FFFFFF" x="25" y="48" width="3" height="6" rx="1.5"></rect>
                <rect id="Rectangle-2-Copy-2" fill="#FFFFFF" transform="translate(50.500000, 26.000000) rotate(-270.000000) translate(-50.500000, -26.000000) " x="49" y="23" width="3" height="6" rx="1.5"></rect>
                <rect id="Rectangle-2-Copy-6" fill="#FFFFFF" transform="translate(10.500000, 9.000000) rotate(-225.000000) translate(-10.500000, -9.000000) " x="9" y="6" width="3" height="6" rx="1.5"></rect>
                <rect id="Rectangle-2-Copy-7" fill="#FFFFFF" transform="translate(43.500000, 44.000000) rotate(-225.000000) translate(-43.500000, -44.000000) " x="42" y="41" width="3" height="6" rx="1.5"></rect>
                <rect id="Rectangle-2-Copy-4" fill="#FFFFFF" transform="translate(43.500000, 9.000000) rotate(-315.000000) translate(-43.500000, -9.000000) " x="42" y="6" width="3" height="6" rx="1.5"></rect>
                <rect id="Rectangle-2-Copy-5" fill="#FFFFFF" transform="translate(9.500000, 43.000000) rotate(-315.000000) translate(-9.500000, -43.000000) " x="8" y="40" width="3" height="6" rx="1.5"></rect>
                <rect id="Rectangle-2-Copy-3" fill="#FFFFFF" transform="translate(3.500000, 26.000000) rotate(-270.000000) translate(-3.500000, -26.000000) " x="2" y="23" width="3" height="6" rx="1.5"></rect>
            </g>
        </g>
    </g>
</svg>