<?xml version="1.0" encoding="UTF-8"?>
<svg width="106px" height="106px" viewBox="0 0 106 106" version="1.1" xmlns="http://www.w3.org/2000/svg" xmlns:xlink="http://www.w3.org/1999/xlink">
    <!-- Generator: Sketch 46.2 (44496) - http://www.bohemiancoding.com/sketch -->
    <title>Group 5</title>
    <desc>Created with Sketch.</desc>
    <defs></defs>
    <g id="Page-1" stroke="none" stroke-width="1" fill="none" fill-rule="evenodd">
        <g id="Desktop-HD" transform="translate(-392.000000, -386.000000)">
            <g id="Group-5" transform="translate(392.000000, 386.000000)">
                <circle id="Oval" stroke="#FFFFFF" stroke-width="5" cx="52.5" cy="52.5" r="19"></circle>
                <rect id="Rectangle-2" fill="#FFFFFF" x="49" y="0" width="6" height="12" rx="3"></rect>
                <rect id="Rectangle-2-Copy" fill="#FFFFFF" x="49" y="94" width="6" height="12" rx="3"></rect>
                <rect id="Rectangle-2-Copy-2" fill="#FFFFFF" transform="translate(100.000000, 52.000000) rotate(-270.000000) translate(-100.000000, -52.000000) " x="97" y="46" width="6" height="12" rx="3"></rect>
                <rect id="Rectangle-2-Copy-6" fill="#FFFFFF" transform="translate(20.363961, 19.363961) rotate(-225.000000) translate(-20.363961, -19.363961) " x="17.363961" y="13.363961" width="6" height="12" rx="3"></rect>
                <rect id="Rectangle-2-Copy-7" fill="#FFFFFF" transform="translate(86.363961, 86.363961) rotate(-225.000000) translate(-86.363961, -86.363961) " x="83.363961" y="80.363961" width="6" height="12" rx="3"></rect>
                <rect id="Rectangle-2-Copy-4" fill="#FFFFFF" transform="translate(85.363961, 19.363961) rotate(-315.000000) translate(-85.363961, -19.363961) " x="82.363961" y="13.363961" width="6" height="12" rx="3"></rect>
                <rect id="Rectangle-2-Copy-5" fill="#FFFFFF" transform="translate(19.363961, 85.363961) rotate(-315.000000) translate(-19.363961, -85.363961) " x="16.363961" y="79.363961" width="6" height="12" rx="3"></rect>
                <rect id="Rectangle-2-Copy-3" fill="#FFFFFF" transform="translate(6.000000, 52.000000) rotate(-270.000000) translate(-6.000000, -52.000000) " x="3" y="46" width="6" height="12" rx="3"></rect>
            </g>
        </g>
    </g>
</svg>